<svg width="37" height="37" viewBox="0 0 37 37" fill="none" xmlns="http://www.w3.org/2000/svg">
<path opacity="0.8" d="M18.2398 36.6529C28.3133 36.6529 36.4796 28.4867 36.4796 18.4131C36.4796 8.33956 28.3133 0.173325 18.2398 0.173325C8.16623 0.173325 0 8.33956 0 18.4131C0 28.4867 8.16623 36.6529 18.2398 36.6529Z" fill="#FFB801"/>
<path d="M13.6817 16.1797C12.9612 16.1797 12.3791 16.845 12.3791 17.6686C12.3791 18.4922 12.9612 19.1576 13.6817 19.1576C14.4023 19.1576 14.9844 18.4922 14.9844 17.6686C14.9844 16.845 14.4023 16.1797 13.6817 16.1797ZM18.2411 16.1797C17.5206 16.1797 16.9384 16.845 16.9384 17.6686C16.9384 18.4922 17.5206 19.1576 18.2411 19.1576C18.9616 19.1576 19.5438 18.4922 19.5438 17.6686C19.5438 16.845 18.9616 16.1797 18.2411 16.1797ZM22.8005 16.1797C22.0799 16.1797 21.4978 16.845 21.4978 17.6686C21.4978 18.4922 22.0799 19.1576 22.8005 19.1576C23.521 19.1576 24.1031 18.4922 24.1031 17.6686C24.1031 16.845 23.521 16.1797 22.8005 16.1797ZM18.2411 7.99037C12.4849 7.99037 7.81972 12.3223 7.81972 17.6686C7.81972 19.8835 8.62982 21.9122 9.9732 23.5454C9.36664 25.3787 8.10468 26.9328 8.08432 26.9514C7.81565 27.2771 7.74237 27.7517 7.89706 28.1612C8.05176 28.5706 8.40592 28.8358 8.79672 28.8358C11.3003 28.8358 13.2747 27.64 14.4593 26.6815C15.6358 27.1049 16.9059 27.3469 18.2411 27.3469C23.9973 27.3469 28.6625 23.0149 28.6625 17.6686C28.6625 12.3223 23.9973 7.99037 18.2411 7.99037ZM18.2411 25.1134C17.1542 25.1134 16.0795 24.9227 15.0496 24.5504L14.1255 24.2154L13.3317 24.8575C12.7495 25.3275 11.9516 25.8533 10.9909 26.2069C11.2881 25.6439 11.5771 25.0111 11.801 24.3364L12.2325 23.0289L11.3939 22.0145C10.6571 21.1165 9.77373 19.6322 9.77373 17.6686C9.77373 13.5647 13.5718 10.2238 18.2411 10.2238C22.9104 10.2238 26.7085 13.5647 26.7085 17.6686C26.7085 21.7726 22.9104 25.1134 18.2411 25.1134Z" fill="white"/>
</svg>
